<svg xmlns="http://www.w3.org/2000/svg" viewBox="0 0 64 64" role="img" aria-label="Maison de la Psychosomatique Relationnelle">
  <!-- PROPOSITION À VALIDER — remplaçable par les fichiers logo définitifs de l'association.
       Motif : deux mains en coupe qui accueillent la fleur (côté humain/relationnel).
       Couleurs du logo : mauve #74658E, vert-bleu #73C0A8, bleu #819EB8, orangé #F5BD46. -->
  <g fill="none" stroke="#74658E" stroke-width="2.1" stroke-linecap="round" stroke-linejoin="round">
    <!-- main gauche : paume + trois doigts -->
    <path d="M32 50.5 C23.5 50.3 14.8 46.8 13 37.4 C12.4 34 13.4 30.8 15.6 28.8"/>
    <path d="M15.6 28.8 C16.9 26.6 19.4 26.4 21 28.2"/>
    <path d="M21.4 27.2 C22.7 24.9 25.3 24.7 27 26.6"/>
    <path d="M27.6 25.9 C28.9 23.7 31 23.7 32 25.6"/>
    <!-- main droite : paume + trois doigts (miroir) -->
    <path d="M32 50.5 C40.5 50.3 49.2 46.8 51 37.4 C51.6 34 50.6 30.8 48.4 28.8"/>
    <path d="M48.4 28.8 C47.1 26.6 44.6 26.4 43 28.2"/>
    <path d="M42.6 27.2 C41.3 24.9 38.7 24.7 37 26.6"/>
    <path d="M36.4 25.9 C35.1 23.7 33 23.7 32 25.6"/>
  </g>
  <!-- la fleur accueillie (écho de l'identité aquarelle) -->
  <g>
    <circle cx="32" cy="15.4" r="3.5" fill="#73C0A8"/>
    <circle cx="25.1" cy="19.4" r="3.5" fill="#819EB8"/>
    <circle cx="38.9" cy="19.4" r="3.5" fill="#819EB8"/>
    <circle cx="27.7" cy="12.2" r="3.1" fill="#73C0A8"/>
    <circle cx="36.3" cy="12.2" r="3.1" fill="#73C0A8"/>
    <circle cx="32" cy="16.6" r="2.5" fill="#F5BD46"/>
  </g>
</svg>
